<svg width="200" height="37" viewBox="0 0 200 37" fill="none" xmlns="http://www.w3.org/2000/svg">
<mask id="mask0_3_17" style="mask-type:luminance" maskUnits="userSpaceOnUse" x="0" y="0" width="200" height="37">
<path d="M200 0H0V36.3636H200V0Z" fill="white"/>
</mask>
<g mask="url(#mask0_3_17)">
<path d="M68.8405 0.000488281C67.0545 0.000488281 65.7397 0.398402 64.8969 1.195C64.0543 1.99019 63.45 3.23336 63.0863 4.92504L59.8619 20.2402C59.6964 21.0698 59.6146 21.7168 59.6146 22.1808C59.6146 23.2075 59.9198 23.963 60.5318 24.4426C61.1438 24.9232 62.1441 25.1637 63.5324 25.1637H65.9139L69.485 7.41126C69.6975 6.43978 70.1623 6.02428 71.0725 6.00206H81.3396L82.6087 0.000488281H68.8405Z" fill="white"/>
<path d="M135.532 10.2947H121.941C121.13 10.2947 120.821 9.94052 120.949 9.05148L121.289 7.34478C121.528 6.2517 122.003 6.00209 122.926 6.00209H140.037L141.334 0H120.602C118.849 0 117.56 0.357468 116.733 1.06958C115.906 1.78361 115.344 2.88491 115.047 4.37705L113.658 11.0912C113.559 11.4883 113.509 11.8534 113.509 12.185C113.509 12.9475 113.765 13.5522 114.277 14.0002C114.79 14.4473 115.609 14.6718 116.733 14.6718H130.175C130.996 14.6595 131.295 14.9256 131.117 15.7159L130.599 17.9683C130.367 18.7474 130.017 19.1614 129.111 19.1614H111.9C111.9 19.1614 111.441 21.7646 111.441 22.181C111.441 23.2077 111.747 23.9626 112.359 24.4429C112.969 24.9224 113.967 25.1619 115.35 25.1634L131.612 25.164C133.365 25.164 134.655 24.8084 135.482 24.0953C136.307 23.3827 136.887 22.2806 137.217 20.7878L138.706 13.8252C138.738 13.66 138.762 13.495 138.78 13.329C138.796 13.1626 138.804 12.9975 138.804 12.8311C138.804 12.0684 138.548 11.4554 138.036 10.9917C137.523 10.5277 136.689 10.2947 135.532 10.2947Z" fill="#00B7CE"/>
<path d="M179.955 7.34465C180.193 6.25157 180.668 6.00209 181.592 6.00209H198.703L200 0H179.268C177.515 0 176.226 0.357467 175.399 1.06958C174.572 1.78361 174.01 2.88478 173.713 4.37692L172.323 11.0911C172.224 11.4881 172.175 11.8533 172.175 12.1848C172.175 12.9474 172.431 13.552 172.943 14C173.456 14.4473 174.274 14.6717 175.399 14.6717H188.84C189.663 14.6594 189.96 14.9254 189.783 15.7157L189.265 17.9681C189.032 18.7473 188.683 19.1612 187.776 19.1612H170.566C170.566 19.1612 170.108 21.7646 170.108 22.1804C170.108 23.2077 170.412 23.9626 171.025 24.4422C171.635 24.9219 172.633 25.1619 174.017 25.1633L190.279 25.1638C192.031 25.1638 193.321 24.8083 194.147 24.0952C194.973 23.3827 195.552 22.28 195.883 20.7878L197.372 13.8252C197.404 13.66 197.429 13.4949 197.446 13.3285C197.462 13.1621 197.47 12.9974 197.47 12.831C197.47 12.0684 197.214 11.4553 196.702 10.9912C196.189 10.5276 195.354 10.2948 194.197 10.2948H180.607C179.796 10.2948 179.486 9.94014 179.615 9.05148L179.955 7.34465Z" fill="#00B7CE"/>
<path d="M164.001 0.000244141L159.956 19.1614H149.292C148.339 19.1614 147.984 18.689 148.201 17.7188L151.949 0.000244141H145.005L140.739 20.2404C140.573 21.0695 140.491 21.7165 140.491 22.1806C140.491 23.2078 140.797 23.9628 141.409 24.4423C142.02 24.9229 143.021 25.1634 144.41 25.1634H158.694L158 28.2474C157.867 28.8108 157.694 29.192 157.479 29.3909C157.264 29.5904 156.875 29.69 156.313 29.69H139.697C139.697 29.69 139.216 32.2711 139.216 32.7351C139.216 33.7618 139.521 34.5172 140.134 34.9969C140.708 35.4491 141.641 35.6802 142.904 35.7066H158.595C160.413 35.7066 161.752 35.3086 162.613 34.5134C163.472 33.717 164.084 32.4733 164.52 30.4502L170.996 0.000372541L164.001 0.000244141Z" fill="#00B7CE"/>
<path d="M49.4737 19.1612L38.6891 19.1674C37.771 19.1612 37.4079 18.7963 37.5985 17.8243L39.8223 7.39447C40.0589 6.43429 40.6373 6.00235 41.4596 6.00235H52.2721L49.4737 19.1612ZM39.1303 0C37.3448 0 36.0306 0.398556 35.1878 1.19464C34.3443 1.99034 33.7409 3.23339 33.3772 4.92468L30.1533 20.2404C29.9873 21.0694 29.9048 21.7165 29.9048 22.1806C29.9048 23.2077 30.2105 23.9626 30.8225 24.4424C31.434 24.923 32.4345 25.164 33.8235 25.164H43.0287H45.7273H48.1667L47.5133 28.2478C47.3806 28.8108 47.2064 29.1918 46.9924 29.3909C46.7772 29.5903 46.3886 29.69 45.8268 29.69H29.0619C29.0619 29.69 28.5784 32.2709 28.5784 32.7351C28.5784 33.7618 28.8841 34.5172 29.4956 34.9969C30.0708 35.4491 31.0041 35.6802 32.2662 35.7066H48.1081C49.9262 35.7066 51.2574 35.3086 52.1007 34.5135C52.9436 33.7169 53.5466 32.4737 54.0161 30.4557L60.4912 0.000128401L39.1303 0Z" fill="white"/>
<path d="M19.8401 19.197H8.23315C7.60473 19.197 7.29097 18.9819 7.29097 18.5509C7.29097 18.4513 7.29891 18.3519 7.31633 18.2524C7.33234 18.1527 7.35692 18.0203 7.39022 17.8543L7.93591 15.2186C8.03516 14.689 8.18423 14.3409 8.38222 14.1745C8.58072 14.0094 8.91049 13.9254 9.37421 13.9254H20.9632L19.8401 19.197ZM29.9576 2.98527C29.9576 1.95806 29.6604 1.20448 29.0649 0.722075C28.4704 0.243012 27.4445 0.000976562 25.9907 0.000976562H5.45618L4.21907 6.00268H21.2314C22.2468 6.00268 22.5442 6.47622 22.3721 7.39519L21.8739 9.65286L6.64655 9.64952C5.85203 9.64952 5.17431 9.7236 4.6121 9.87306C4.05015 10.0221 3.57118 10.2796 3.17418 10.6437C2.77718 11.0092 2.44638 11.5057 2.18219 12.1357C1.91683 12.7659 1.68593 13.5455 1.48743 14.473L0.247501 20.4402C0.0819128 21.2038 -0.000305176 21.8159 -0.000305176 22.2808C-0.000305176 23.2424 0.280542 23.9635 0.843005 24.4431C1.40457 24.9241 2.31396 25.1642 3.57118 25.1642H25.4444L29.7097 4.9254C29.8748 4.09593 29.9576 3.4502 29.9576 2.98527Z" fill="white"/>
<path d="M104.316 7.3947L102.822 14.3848L101.783 19.1598C100.854 19.1607 100.304 19.1611 100.28 19.1611H90.4593C89.7311 19.1611 89.265 18.805 89.4669 17.8185L90.1178 14.6823L91.6682 7.3947C91.8783 6.45108 92.3341 6.00219 93.2552 6.00219H103.076C103.969 6.00219 104.49 6.42887 104.316 7.3947ZM112.018 2.98439C112.018 1.95719 111.72 1.2036 111.125 0.721587C110.529 0.24201 109.504 0.000488281 108.049 0.000488281H90.9874C89.2014 0.000488281 87.8872 0.39853 87.0437 1.19513C86.2008 1.99031 85.597 3.23336 85.2338 4.92504L82.0094 20.2403C81.8434 21.0698 81.7616 21.7168 81.7616 22.1809C81.7616 23.2076 82.0669 23.9626 82.6788 24.4422C83.2903 24.9233 84.2917 25.1638 85.6797 25.1638H102.743C104.56 25.1638 105.892 24.7668 106.735 23.9702C107.578 23.175 108.181 21.932 108.545 20.2403L111.769 4.92504C111.934 4.09557 112.018 3.44971 112.018 2.98439Z" fill="white"/>
</g>
</svg>
